<svg width="156" height="40" viewBox="0 0 156 40" fill="none" xmlns="http://www.w3.org/2000/svg">
<path d="M4.62332 5.22193C5.57169 5.22193 6.04588 4.83899 6.04588 4.07311C6.04588 3.30723 5.57169 2.92428 4.62332 2.92428C3.83301 2.92428 3.43785 3.30723 3.43785 4.07311C3.43785 4.83899 3.83301 5.22193 4.62332 5.22193ZM21.694 14.9347C23.0376 14.9347 24.223 15.3873 25.2504 16.2924C26.2778 17.1976 26.7915 18.2768 26.7915 19.53C26.7915 20.8181 26.2778 21.9147 25.2504 22.8198C24.2626 23.6902 23.0376 24.1253 21.5755 24.1253H14.9369V32.5849C14.9369 34.2907 14.2256 35.8225 12.803 37.1802C11.42 38.503 9.60228 39.1645 7.34989 39.1645C5.37412 39.1645 3.65519 38.503 2.19311 37.1802C0.731038 35.8573 0 34.2907 0 32.4804V6.57964C0 4.69974 0.731038 3.13316 2.19311 1.8799C3.65519 0.626632 5.41363 0 7.46844 0H23.4722C25.369 0 26.9891 0.574413 28.3327 1.72324C29.6762 2.87206 30.3479 4.28199 30.3479 5.953C30.3479 7.62402 29.6762 9.05135 28.3327 10.235C26.9891 11.4186 25.369 12.0104 23.4722 12.0104H14.9369V14.9347H21.694ZM3.79349 5.84857C3.51688 5.84857 3.24028 5.97041 2.96367 6.2141C2.72657 6.42298 2.60803 6.71889 2.60803 7.10183V32.5849C2.60803 33.3856 2.90439 34.1862 3.49713 34.9869C4.08986 35.7528 4.97896 36.3098 6.16443 36.658L6.40152 36.7624C6.55958 36.7624 6.79668 36.6754 7.1128 36.5013C7.46844 36.2924 7.66602 36.101 7.70553 35.9269V35.6136C7.70553 35.3699 7.6265 35.1436 7.46844 34.9347C7.31038 34.691 7.1128 34.5692 6.87571 34.5692C6.48055 34.4996 6.0854 34.2907 5.69024 33.9426C5.29508 33.5596 5.09751 33.107 5.09751 32.5849V7.10183C5.09751 6.26632 4.66284 5.84857 3.79349 5.84857ZM26.673 7.41514C26.4359 7.20627 26.0803 7.10183 25.6061 7.10183C25.448 7.10183 25.2109 7.17145 24.8948 7.31071C24.4996 7.65883 24.0255 7.8329 23.4722 7.8329H14.9369C14.0675 7.8329 13.6329 8.21584 13.6329 8.98172C13.6329 9.74761 14.0675 10.1305 14.9369 10.1305H23.4722C24.0255 10.1305 24.6182 10.0261 25.2504 9.81723C25.8827 9.57354 26.3964 9.26023 26.7915 8.87728C26.9496 8.73803 27.0286 8.56397 27.0286 8.35509C27.0286 7.93734 26.9101 7.62402 26.673 7.41514ZM23.7093 20.1567C23.5513 19.8782 23.1956 19.7389 22.6424 19.7389C22.2868 19.7737 22.0497 19.8433 21.9311 19.9478C21.8521 20.0174 21.536 20.0522 20.9828 20.0522H15.174C14.3046 20.0522 13.87 20.4352 13.87 21.201C13.87 22.0366 14.3046 22.4543 15.174 22.4543H20.9828C21.6545 22.4543 22.1485 22.4195 22.4646 22.3499C22.8202 22.2802 23.1561 22.1062 23.4722 21.8277C23.7884 21.5492 23.9464 21.2359 23.9464 20.8877L23.7093 20.1567Z" fill="#04B90B"/>
<path d="M39.2218 12.7415C38.9847 12.7415 38.7871 12.8285 38.6291 13.0026C38.471 13.1767 38.392 13.403 38.392 13.6815C38.392 14.1688 38.6686 14.4125 39.2218 14.4125C39.775 14.4125 40.0516 14.1688 40.0516 13.6815C40.0516 13.0548 39.775 12.7415 39.2218 12.7415ZM47.1644 7.31071C51.0765 7.31071 54.4155 8.9121 57.1816 12.1149C59.9872 15.2829 61.39 19.1123 61.39 23.6031C61.39 28.094 59.9872 31.9582 57.1816 35.1958C54.4155 38.3986 51.0765 40 47.1644 40C43.2524 40 39.8936 38.3986 37.088 35.1958C34.3219 31.9582 32.9388 28.094 32.9388 23.6031C32.9388 19.1123 34.3219 15.2829 37.088 12.1149C39.8936 8.9121 43.2524 7.31071 47.1644 7.31071ZM47.1644 29.765C48.587 29.765 49.8317 29.1732 50.8987 27.9896C51.9656 26.7711 52.499 25.309 52.499 23.6031C52.499 21.9321 51.9656 20.5048 50.8987 19.3211C49.8317 18.1375 48.587 17.5457 47.1644 17.5457C45.7419 17.5457 44.4971 18.1375 43.4302 19.3211C42.3633 20.5048 41.8298 21.9321 41.8298 23.6031C41.8298 25.309 42.3435 26.7711 43.3709 27.9896C44.4379 29.1732 45.7024 29.765 47.1644 29.765ZM53.566 26.7363L53.4474 27.154C53.4474 27.4326 53.6055 27.7111 53.9216 27.9896L54.2772 28.094C54.7514 28.094 55.0676 27.8851 55.2256 27.4674C55.6998 26.3185 55.9369 25.0305 55.9369 23.6031C55.9369 20.9574 55.0873 18.6771 53.3881 16.7624C51.689 14.8477 49.6144 13.8903 47.1644 13.8903C46.2951 13.8903 45.5838 13.96 45.0306 14.0992C44.4774 14.2037 43.9242 14.4473 43.3709 14.8303C42.9758 14.9347 42.7782 15.2132 42.7782 15.6658L42.8968 16.0835C43.0943 16.4317 43.3709 16.6057 43.7266 16.6057L44.2008 16.3969C44.9911 15.9095 46.0185 15.6658 47.283 15.6658C49.1797 15.6658 50.7999 16.4491 52.1434 18.0157C53.4869 19.5474 54.1587 21.4099 54.1587 23.6031C54.1587 24.6475 53.9611 25.6919 53.566 26.7363ZM52.262 34.7781C51.5507 35.2654 50.7406 35.631 49.8317 35.8747C48.9229 36.1184 48.0338 36.2402 47.1644 36.2402C44.1217 36.2402 41.5137 35.0218 39.3404 32.5849C37.2065 30.1131 36.1396 27.1192 36.1396 23.6031C36.1396 20.9922 36.7323 18.6945 37.9178 16.7102C37.9573 16.6754 37.9771 16.6231 37.9771 16.5535C38.0166 16.4491 38.0364 16.3272 38.0364 16.188C38.0364 15.8399 37.9771 15.631 37.8585 15.5614C37.7795 15.4569 37.6807 15.4047 37.5622 15.4047C37.4831 15.3699 37.3646 15.3525 37.2065 15.3525C36.8114 15.3525 36.6138 15.4569 36.6138 15.6658C35.942 16.8842 35.4086 18.1723 35.0134 19.53C34.6578 20.8529 34.4799 22.2106 34.4799 23.6031C34.4799 27.5718 35.7247 30.9835 38.2142 33.8381C40.7036 36.6928 43.6871 38.1201 47.1644 38.1201C49.2588 38.1201 51.2741 37.4935 53.2103 36.2402C53.4474 36.0313 53.566 35.8225 53.566 35.6136L53.4474 35.0914C53.2894 34.8129 53.0127 34.6736 52.6176 34.6736L52.262 34.7781Z" fill="#04B90B"/>
<path d="M70.7687 12.7415C70.5316 12.7415 70.334 12.8285 70.1759 13.0026C70.0179 13.1767 69.9388 13.403 69.9388 13.6815C69.9388 14.1688 70.2154 14.4125 70.7687 14.4125C71.3219 14.4125 71.5985 14.1688 71.5985 13.6815C71.5985 13.0548 71.3219 12.7415 70.7687 12.7415ZM78.7113 7.31071C82.6233 7.31071 85.9624 8.9121 88.7285 12.1149C91.5341 15.2829 92.9369 19.1123 92.9369 23.6031C92.9369 28.094 91.5341 31.9582 88.7285 35.1958C85.9624 38.3986 82.6233 40 78.7113 40C74.7992 40 71.4404 38.3986 68.6348 35.1958C65.8687 31.9582 64.4857 28.094 64.4857 23.6031C64.4857 19.1123 65.8687 15.2829 68.6348 12.1149C71.4404 8.9121 74.7992 7.31071 78.7113 7.31071ZM78.7113 29.765C80.1339 29.765 81.3786 29.1732 82.4455 27.9896C83.5124 26.7711 84.0459 25.309 84.0459 23.6031C84.0459 21.9321 83.5124 20.5048 82.4455 19.3211C81.3786 18.1375 80.1339 17.5457 78.7113 17.5457C77.2887 17.5457 76.044 18.1375 74.9771 19.3211C73.9101 20.5048 73.3767 21.9321 73.3767 23.6031C73.3767 25.309 73.8904 26.7711 74.9178 27.9896C75.9847 29.1732 77.2492 29.765 78.7113 29.765ZM85.1128 26.7363L84.9943 27.154C84.9943 27.4326 85.1523 27.7111 85.4684 27.9896L85.8241 28.094C86.2983 28.094 86.6144 27.8851 86.7725 27.4674C87.2466 26.3185 87.4837 25.0305 87.4837 23.6031C87.4837 20.9574 86.6342 18.6771 84.935 16.7624C83.2358 14.8477 81.1613 13.8903 78.7113 13.8903C77.8419 13.8903 77.1307 13.96 76.5774 14.0992C76.0242 14.2037 75.471 14.4473 74.9178 14.8303C74.5226 14.9347 74.3251 15.2132 74.3251 15.6658L74.4436 16.0835C74.6412 16.4317 74.9178 16.6057 75.2734 16.6057L75.7476 16.3969C76.5379 15.9095 77.5653 15.6658 78.8298 15.6658C80.7266 15.6658 82.3467 16.4491 83.6902 18.0157C85.0338 19.5474 85.7055 21.4099 85.7055 23.6031C85.7055 24.6475 85.508 25.6919 85.1128 26.7363ZM83.8088 34.7781C83.0975 35.2654 82.2874 35.631 81.3786 35.8747C80.4697 36.1184 79.5806 36.2402 78.7113 36.2402C75.6686 36.2402 73.0606 35.0218 70.8872 32.5849C68.7534 30.1131 67.6864 27.1192 67.6864 23.6031C67.6864 20.9922 68.2792 18.6945 69.4646 16.7102C69.5042 16.6754 69.5239 16.6231 69.5239 16.5535C69.5634 16.4491 69.5832 16.3272 69.5832 16.188C69.5832 15.8399 69.5239 15.631 69.4054 15.5614C69.3263 15.4569 69.2275 15.4047 69.109 15.4047C69.03 15.3699 68.9114 15.3525 68.7534 15.3525C68.3582 15.3525 68.1606 15.4569 68.1606 15.6658C67.4889 16.8842 66.9554 18.1723 66.5602 19.53C66.2046 20.8529 66.0268 22.2106 66.0268 23.6031C66.0268 27.5718 67.2715 30.9835 69.761 33.8381C72.2505 36.6928 75.2339 38.1201 78.7113 38.1201C80.8056 38.1201 82.8209 37.4935 84.7572 36.2402C84.9943 36.0313 85.1128 35.8225 85.1128 35.6136L84.9943 35.0914C84.8362 34.8129 84.5596 34.6736 84.1644 34.6736L83.8088 34.7781Z" fill="#04B90B"/>
<path d="M99.4704 12.1149C100.103 12.1149 100.419 11.8016 100.419 11.1749C100.419 10.5483 100.103 10.235 99.4704 10.235C98.7591 10.235 98.4035 10.5483 98.4035 11.1749C98.4035 11.8016 98.7591 12.1149 99.4704 12.1149ZM119.268 27.154C119.544 26.4926 119.742 25.866 119.86 25.2742C120.018 24.6823 120.097 24.0557 120.097 23.3943C120.097 20.7137 118.991 18.4334 116.778 16.5535C114.605 14.6388 111.997 13.6815 108.954 13.6815H107.413C106.702 13.6815 106.346 13.96 106.346 14.517C106.346 15.1436 106.702 15.4569 107.413 15.4569H108.954C111.444 15.4569 113.577 16.2402 115.356 17.8068C117.173 19.3386 118.082 21.201 118.082 23.3943C118.082 24.4386 117.845 25.483 117.371 26.5274L117.252 26.9452C117.252 27.2933 117.489 27.537 117.964 27.6762L118.319 27.7807C118.793 27.7807 119.11 27.5718 119.268 27.154ZM108.954 39.1645H100.063C98.9172 39.1645 97.9293 38.8164 97.0994 38.1201C96.3091 37.389 95.914 36.5187 95.914 35.5091V11.3838C95.914 10.4439 96.3091 9.60836 97.0994 8.87728C97.9293 8.1114 98.9172 7.72846 100.063 7.72846H108.954C113.854 7.72846 118.062 9.26023 121.579 12.3238C125.096 15.3873 126.855 19.0775 126.855 23.3943C126.855 27.7111 125.096 31.4186 121.579 34.517C118.062 37.6153 113.854 39.1645 108.954 39.1645ZM107.887 29.5561L108.48 29.6606C110.495 29.6606 112.194 29.0688 113.577 27.8851C115 26.6667 115.711 25.1697 115.711 23.3943C115.711 21.7232 115 20.3133 113.577 19.1645C112.155 18.0157 110.495 17.4413 108.598 17.4413H107.887V29.5561ZM114.763 34.3603C113.024 35.1262 111.088 35.5091 108.954 35.5091H105.516C104.884 35.5091 104.568 35.7876 104.568 36.3446C104.568 36.9713 104.884 37.2846 105.516 37.2846H108.954C111.404 37.2846 113.656 36.832 115.711 35.9269C116.027 35.8225 116.185 35.5788 116.185 35.1958V34.6736C116.027 34.3951 115.711 34.2559 115.237 34.2559L114.763 34.3603ZM100.063 13.6815C100.063 13.0548 99.747 12.7415 99.1147 12.7415C98.4035 12.7415 98.0478 13.0548 98.0478 13.6815V34.6736C98.0478 35.2306 98.4035 35.5091 99.1147 35.5091C99.747 35.5091 100.063 35.2306 100.063 34.6736V13.6815Z" fill="#04B90B"/>
<path d="M134.187 15.6658H139.878C140.589 15.6658 140.945 15.3525 140.945 14.7258C140.945 14.2385 140.589 13.9252 139.878 13.7859H134.187C133.516 13.7859 133.12 13.5944 133.002 13.2115C132.883 12.8285 132.567 12.6371 132.054 12.6371H131.698C131.224 12.7763 130.987 13.0896 130.987 13.577L131.105 13.8903C131.342 14.3777 131.737 14.7955 132.291 15.1436C132.844 15.4917 133.476 15.6658 134.187 15.6658ZM138.337 35.6136C137.704 35.6136 137.388 35.8921 137.388 36.4491C137.388 37.0061 137.704 37.2846 138.337 37.2846H150.428C151.495 37.2846 152.325 36.9713 152.918 36.3446L153.155 35.8225C153.036 35.4395 152.938 35.1958 152.859 35.0914C152.779 34.9521 152.562 34.8825 152.207 34.8825C151.93 34.8825 151.732 34.9869 151.614 35.1958C151.14 35.4743 150.744 35.6136 150.428 35.6136H138.337ZM132.646 11.906C133.358 11.906 133.713 11.5927 133.713 10.9661C133.713 10.4091 133.358 10.1305 132.646 10.1305C132.014 10.1305 131.698 10.4439 131.698 11.0705C131.698 11.6275 132.014 11.906 132.646 11.906ZM150.428 39.1645H134.662C132.962 39.1645 131.52 38.6423 130.335 37.5979C129.189 36.5187 128.616 35.3003 128.616 33.9426C128.616 33.49 128.675 33.02 128.794 32.5326C128.952 32.0104 129.169 31.5753 129.446 31.2272L139.285 17.5457H134.187C132.686 17.5457 131.382 17.0583 130.275 16.0835C129.169 15.1088 128.616 13.96 128.616 12.6371C128.616 11.2794 129.149 10.1305 130.216 9.1906C131.323 8.21584 132.646 7.72846 134.187 7.72846H149.48C151.258 7.72846 152.7 8.26806 153.807 9.34726C154.953 10.3916 155.526 11.6275 155.526 13.0548C155.526 14.0992 155.21 15.074 154.577 15.9791L144.857 29.4517H150.547C152.048 29.4517 153.333 29.9043 154.4 30.8094C155.467 31.7145 156 32.8634 156 34.2559C156 35.6136 155.447 36.7798 154.34 37.7546C153.273 38.6945 151.969 39.1645 150.428 39.1645ZM131.342 35.718C131.658 35.9965 131.935 36.1358 132.172 36.1358L132.646 35.9269C132.962 35.9269 133.12 35.718 133.12 35.3003C133.081 34.9869 133.041 34.8129 133.002 34.7781C132.765 34.4648 132.646 34.1514 132.646 33.8381C132.646 33.4204 132.765 33.107 133.002 32.8982L142.723 19.3211C143.118 18.8686 143.316 18.3116 143.316 17.6501C143.316 17.1279 143.217 16.6754 143.019 16.2924C142.861 15.8747 142.565 15.6658 142.13 15.6658H141.656C141.34 15.805 141.182 16.0835 141.182 16.5013L141.3 16.9191L141.419 17.5457C141.419 17.9634 141.34 18.242 141.182 18.3812L131.342 31.9582C131.066 32.376 130.868 32.7241 130.75 33.0026C130.671 33.2463 130.631 33.5248 130.631 33.8381C130.631 34.1862 130.71 34.5344 130.868 34.8825C131.026 35.1958 131.184 35.4743 131.342 35.718Z" fill="#04B90B"/>
</svg>
